<?xml version="1.0" standalone="no"?>
<!--Generator: Xara Designer (www.xara.com), SVG filter version: 3.0.0.6-->
<svg stroke-width="0.501" stroke-linejoin="bevel" fill-rule="evenodd" xmlns:xlink="http://www.w3.org/1999/xlink" xmlns="http://www.w3.org/2000/svg" version="1.1" overflow="visible" width="600pt" height="300pt" viewBox="0 0 600 300">
 <defs>
  <marker id="DefaultArrow2" markerUnits="strokeWidth" viewBox="0 0 1 1" markerWidth="1" markerHeight="1" overflow="visible" orient="auto">
   <!-- REF_ARROW_STRAIGHT (-2) -->
   <g transform="scale(0.0092592592)">
    <!-- 1/108 -->
    <path d="M -9 54 L -9 -54 L 117 0 z"/>
   </g>
  </marker>
  <marker id="DefaultArrow3" markerUnits="strokeWidth" viewBox="0 0 1 1" markerWidth="1" markerHeight="1" overflow="visible" orient="auto">
   <!-- REF_ARROW_ANGLED -->
   <g transform="scale(0.0092592592)">
    <path d="M -27 54 L -9 0 L -27 -54 L 135 0 z"/>
   </g>
  </marker>
  <marker id="DefaultArrow4" markerUnits="strokeWidth" viewBox="0 0 1 1" markerWidth="1" markerHeight="1" overflow="visible" orient="auto">
   <!-- REF_ARROW_ROUNDED -->
   <g transform="scale(0.0092592592)">
    <path d="M -9,0 L -9,-45 C -9,-51.708 2.808,-56.580 9,-54 L 117,-9 C 120.916,-7.369 126.000,-4.242 126,0 C 126,4.242 120.916,7.369 117,9 L 9,54 C 2.808,56.580 -9,51.708 -9,45 z"/>
   </g>
  </marker>
  <marker id="DefaultArrow5" markerUnits="strokeWidth" viewBox="0 0 1 1" markerWidth="1" markerHeight="1" overflow="visible" orient="auto">
   <!-- REF_ARROW_SPOT -->
   <g transform="scale(0.0092592592)">
    <path d="M -54, 0 C -54,29.807 -29.807,54 0,54 C 29.807,54 54,29.807 54,0 C 54,-29.807 29.807,-54 0,-54 C -29.807,-54 -54,-29.807 -54,0 z"/>
   </g>
  </marker>
  <marker id="DefaultArrow6" markerUnits="strokeWidth" viewBox="0 0 1 1" markerWidth="1" markerHeight="1" overflow="visible" orient="auto">
   <!-- REF_ARROW_DIAMOND -->
   <g transform="scale(0.0092592592)">
    <path d="M -63,0 L 0,63 L 63,0 L 0,-63 z"/>
   </g>
  </marker>
  <marker id="DefaultArrow7" markerUnits="strokeWidth" viewBox="0 0 1 1" markerWidth="1" markerHeight="1" overflow="visible" orient="auto">
   <!-- REF_ARROW_FEATHER -->
   <g transform="scale(0.0092592592)">
    <path d="M 18,-54 L 108,-54 L 63,0 L 108,54 L 18, 54 L -36,0 z"/>
   </g>
  </marker>
  <marker id="DefaultArrow8" markerUnits="strokeWidth" viewBox="0 0 1 1" markerWidth="1" markerHeight="1" overflow="visible" orient="auto">
   <!-- REF_ARROW_FEATHER2 -->
   <g transform="scale(0.0092592592)">
    <path d="M -36,0 L 18,-54 L 54,-54 L 18,-18 L 27,-18 L 63,-54 L 99,-54 L 63,-18 L 72,-18 L 108,-54 L 144,-54 L 90,0 L 144,54 L 108,54 L 72,18 L 63,18 L 99,54 L 63,54 L 27,18 L 18,18 L 54,54 L 18,54 z"/>
   </g>
  </marker>
  <marker id="DefaultArrow9" markerUnits="strokeWidth" viewBox="0 0 1 1" markerWidth="1" markerHeight="1" overflow="visible" orient="auto">
   <!-- REF_ARROW_HOLLOWDIAMOND -->
   <g transform="scale(0.0092592592)">
    <path d="M 0,45 L -45,0 L 0, -45 L 45, 0 z M 0, 63 L-63, 0 L 0, -63 L 63, 0 z"/>
   </g>
  </marker>
  <filter id="StainedFilter">
   <feBlend mode="multiply" in2="BackgroundImage" in="SourceGraphic" result="blend"/>
   <feComposite in="blend" in2="SourceAlpha" operator="in" result="comp"/>
  </filter>
  <filter id="BleachFilter">
   <feBlend mode="screen" in2="BackgroundImage" in="SourceGraphic" result="blend"/>
   <feComposite in="blend" in2="SourceAlpha" operator="in" result="comp"/>
  </filter>
  <filter id="InvertTransparencyBitmapFilter">
   <feComponentTransfer>
    <feFuncR type="gamma" amplitude="1.055" exponent=".416666666" offset="-0.055"/>
    <feFuncG type="gamma" amplitude="1.055" exponent=".416666666" offset="-0.055"/>
    <feFuncB type="gamma" amplitude="1.055" exponent=".416666666" offset="-0.055"/>
   </feComponentTransfer>
   <feComponentTransfer>
    <feFuncR type="linear" slope="-1" intercept="1"/>
    <feFuncG type="linear" slope="-1" intercept="1"/>
    <feFuncB type="linear" slope="-1" intercept="1"/>
    <feFuncA type="linear" slope="1" intercept="0"/>
   </feComponentTransfer>
   <feComponentTransfer>
    <feFuncR type="gamma" amplitude="1" exponent="2.4" offset="0"/>
    <feFuncG type="gamma" amplitude="1" exponent="2.4" offset="0"/>
    <feFuncB type="gamma" amplitude="1" exponent="2.4" offset="0"/>
   </feComponentTransfer>
  </filter>
 </defs>
 <g id="Document" fill="none" stroke="black" font-family="Times New Roman" font-size="16" transform="scale(1 -1)">
  <g id="Spread" transform="translate(0 -300)">
   <g id="Layer 1">
    <g id="Group" stroke="none">
     <g id="Group_1">
      <path d="M 157.581,264.21 C 223.068,264.21 276.219,211.059 276.219,145.572 C 276.219,80.085 223.068,26.934 157.581,26.934 C 92.094,26.934 38.943,80.085 38.943,145.572 C 38.943,211.059 92.094,264.21 157.581,264.21 Z" stroke-width="8" fill="#ffffff" stroke-linejoin="miter" marker-start="none" marker-end="none" stroke-miterlimit="79.8403193612775"/>
      <path d="M 157.581,18.753 C 87.574,18.753 30.763,75.565 30.763,145.571 C 30.763,215.576 87.574,272.39 157.581,272.39 C 227.585,272.39 284.399,215.576 284.399,145.571 C 284.399,75.565 227.585,18.753 157.581,18.753 Z M 157.581,35.114 C 218.548,35.114 268.038,84.602 268.038,145.571 C 268.038,206.539 218.548,256.029 157.581,256.029 C 96.611,256.029 47.123,206.539 47.123,145.571 C 47.123,84.602 96.611,35.114 157.581,35.114 Z" stroke-width="0.5" fill="#000000" fill-rule="evenodd" marker-start="none" marker-end="none" stroke-miterlimit="79.8403193612775"/>
      <g id="Group_2" stroke-linejoin="miter" stroke-width="0.5" stroke-miterlimit="79.8403193612775">
       <path d="M 200.392,196.723 C 227.198,196.723 248.956,174.965 248.956,148.159 C 248.956,121.353 227.198,99.595 200.392,99.595 C 173.586,99.595 151.828,121.353 151.828,148.159 C 151.828,174.965 173.586,196.723 200.392,196.723 Z" fill="#000000" marker-start="none" marker-end="none"/>
       <g id="Group_3" fill="#ffffff">
        <path d="M 221.62,175.919 C 214.795,175.919 209.255,170.379 209.255,163.554 C 209.255,156.729 214.795,151.189 221.62,151.189 C 228.445,151.189 233.985,156.729 233.985,163.554 C 233.985,170.379 228.445,175.919 221.62,175.919 Z" marker-start="none" marker-end="none"/>
       </g>
      </g>
     </g>
     <g id="Group_4">
      <path d="M 433.474,263.173 C 498.961,263.173 552.112,210.022 552.112,144.535 C 552.112,79.048 498.961,25.897 433.474,25.897 C 367.987,25.897 314.836,79.048 314.836,144.535 C 314.836,210.022 367.987,263.173 433.474,263.173 Z" stroke-width="8" fill="#ffffff" stroke-linejoin="miter" marker-start="none" marker-end="none" stroke-miterlimit="79.8403193612775"/>
      <path d="M 433.474,17.716 C 363.467,17.716 306.655,74.528 306.655,144.535 C 306.655,214.539 363.467,271.353 433.474,271.353 C 503.478,271.353 560.292,214.539 560.292,144.535 C 560.292,74.528 503.478,17.716 433.474,17.716 Z M 433.474,34.077 C 494.441,34.077 543.931,83.565 543.931,144.535 C 543.931,205.502 494.441,254.992 433.474,254.992 C 372.504,254.992 323.016,205.502 323.016,144.535 C 323.016,83.565 372.504,34.077 433.474,34.077 Z" stroke-width="0.5" fill="#000000" fill-rule="evenodd" marker-start="none" marker-end="none" stroke-miterlimit="79.8403193612775"/>
      <g id="Group_5" stroke-linejoin="miter" stroke-width="0.5" stroke-miterlimit="79.8403193612775">
       <path d="M 476.285,195.686 C 503.091,195.686 524.849,173.928 524.849,147.122 C 524.849,120.316 503.091,98.558 476.285,98.558 C 449.479,98.558 427.721,120.316 427.721,147.122 C 427.721,173.928 449.479,195.686 476.285,195.686 Z" fill="#000000" marker-start="none" marker-end="none"/>
       <g id="Group_6" fill="#ffffff">
        <path d="M 497.513,174.882 C 490.688,174.882 485.148,169.342 485.148,162.517 C 485.148,155.692 490.688,150.152 497.513,150.152 C 504.338,150.152 509.878,155.692 509.878,162.517 C 509.878,169.342 504.338,174.882 497.513,174.882 Z" marker-start="none" marker-end="none"/>
       </g>
      </g>
     </g>
    </g>
   </g>
  </g>
 </g>
</svg>
