<svg width="600" height="382" xmlns="http://www.w3.org/2000/svg"> <rect width="100%" height="100%" fill="#FEFEFE" />
<line x1="70" y1="282" x2="530" y2="282" stroke="#9f9f9f" stroke-width="1" />
<rect x="70" y="122" width="460" height="160" fill="#FEFEFE" />
<text text-anchor="middle" x="300.0" y="20" font-family="'Segoe UI', 'Helvetica Neue', Arial, sans-serif" font-weight="bold" font-size="22" fill="#000000">Evolution du volume de la Mer</text>
<text text-anchor="middle" x="300.0" y="42" font-family="'Segoe UI', 'Helvetica Neue', Arial, sans-serif" font-weight="bold" font-size="22" fill="#000000">De Glace en fonction du temps</text>
<text text-anchor="middle" x="300.0" y="64" font-family="'Segoe UI', 'Helvetica Neue', Arial, sans-serif" font-size="14" fill="#000000">correlates with</text>
<text text-anchor="middle" x="300.0" y="90" font-family="'Segoe UI', 'Helvetica Neue', Arial, sans-serif" font-weight="bold" font-size="22" fill="#ba0f27">Milk consumption</text>
<text text-anchor="start" x="40" y="327.3333333333333" font-family="'Segoe UI', 'Helvetica Neue', Arial, sans-serif" font-size="14" fill="#9f9f9f">Evolution du volume de la Mer De Glace en fonction du temps &#183; Source: OGGM</text>
<text text-anchor="start" x="40" y="350.66666666666663" font-family="'Segoe UI', 'Helvetica Neue', Arial, sans-serif" font-size="14" fill="#9f9f9f">Per capita consumption of Fluid beverage milk in the US &#183; Source: USDA</text>
<text text-anchor="start" x="40" y="373.99999999999994" font-family="'Segoe UI', 'Helvetica Neue', Arial, sans-serif" font-size="14" fill="#9f9f9f">1990-2020, r=0.977, r&#178;=0.955, p&lt;0.01  &#183;  tylervigen.com/spurious/custom_correlation/533</text>
<polyline points="20,322.66666666666663 37,322.66666666666663" style="fill:none;stroke:#000000;stroke-width:2" stroke-dasharray="3,1" />
<polygon points="18.02,322.66666666666663 20,320.6866666666666 21.98,322.66666666666663 20,324.64666666666665" stroke="#F7F7F7" stroke-width="1.65" fill="#F7F7F7"  />
<polygon points="18.02,322.66666666666663 20,320.6866666666666 21.98,322.66666666666663 20,324.64666666666665" stroke="#000000" stroke-width="1.65" fill="#000000"  />
<polyline points="20,345.99999999999994 37,345.99999999999994" style="fill:none;stroke:#ba0f27;stroke-width:2" />
<circle cx="20" cy="345.99999999999994" r="1.65" stroke="#F7F7F7" stroke-width="1.65" fill="#F7F7F7" />
<circle cx="20" cy="345.99999999999994" r="1.65" stroke="#ba0f27" stroke-width="1.65" fill="#ba0f27"  />
<text x="5" y="207.0" transform="rotate(270 5 202.0)" text-anchor="middle" fill="#000000" font-family="'Segoe UI', 'Helvetica Neue', Arial, sans-serif" font-size="14" dominant-baseline="central">Volume (m^2)</text>
<text x="202.0" y="-389" transform="rotate(90 100 100)" text-anchor="middle" fill="#ba0f27" font-family="'Segoe UI', 'Helvetica Neue', Arial, sans-serif" font-size="14" dominant-baseline="central">Pounds per person</text>
<line x1="71" y1="128.65" x2="528" y2="128.65" stroke="#F3F3F3" stroke-width="1" fill="#FEFEFE" />
<text text-anchor="end" x="62" y="133.31666666666666" font-family="'Segoe UI', 'Helvetica Neue', Arial, sans-serif" font-size="12" fill="#000000">2.3B</text>
<text text-anchor="start" x="538" y="133.31666666666666" font-family="'Segoe UI', 'Helvetica Neue', Arial, sans-serif" font-size="12" fill="#ba0f27">220.0</text>
<line x1="71" y1="165.325" x2="528" y2="165.325" stroke="#F3F3F3" stroke-width="1" fill="#FEFEFE" />
<text text-anchor="end" x="62" y="169.99166666666665" font-family="'Segoe UI', 'Helvetica Neue', Arial, sans-serif" font-size="12">2.2B</text>
<text text-anchor="start" x="538" y="169.99166666666665" font-family="'Segoe UI', 'Helvetica Neue', Arial, sans-serif" font-size="12" fill="#ba0f27">200.2</text>
<line x1="71" y1="202.0" x2="528" y2="202.0" stroke="#F3F3F3" stroke-width="1" fill="#FEFEFE" />
<text text-anchor="end" x="62" y="206.66666666666666" font-family="'Segoe UI', 'Helvetica Neue', Arial, sans-serif" font-size="12">2.0B</text>
<text text-anchor="start" x="538" y="206.66666666666666" font-family="'Segoe UI', 'Helvetica Neue', Arial, sans-serif" font-size="12" fill="#ba0f27">180.5</text>
<line x1="71" y1="238.675" x2="528" y2="238.675" stroke="#F3F3F3" stroke-width="1" fill="#FEFEFE" />
<text text-anchor="end" x="62" y="243.34166666666667" font-family="'Segoe UI', 'Helvetica Neue', Arial, sans-serif" font-size="12">1.9B</text>
<text text-anchor="start" x="538" y="243.34166666666667" font-family="'Segoe UI', 'Helvetica Neue', Arial, sans-serif" font-size="12" fill="#ba0f27">160.8</text>
<line x1="71" y1="275.35" x2="528" y2="275.35" stroke="#F3F3F3" stroke-width="1" fill="#FEFEFE" />
<text text-anchor="end" x="62" y="280.0166666666667" font-family="'Segoe UI', 'Helvetica Neue', Arial, sans-serif" font-size="12">1.7B</text>
<text text-anchor="start" x="538" y="280.0166666666667" font-family="'Segoe UI', 'Helvetica Neue', Arial, sans-serif" font-size="12" fill="#ba0f27">141.0</text>
<polyline points="76.65,282 76.65,288" style="fill:none;stroke:#000000;stroke-width:1" />
<polyline points="151.1,282 151.1,288" style="fill:none;stroke:#000000;stroke-width:1" />
<polyline points="225.54999999999998,282 225.54999999999998,288" style="fill:none;stroke:#000000;stroke-width:1" />
<polyline points="300.0,282 300.0,288" style="fill:none;stroke:#000000;stroke-width:1" />
<polyline points="374.44999999999993,282 374.44999999999993,288" style="fill:none;stroke:#000000;stroke-width:1" />
<polyline points="448.9,282 448.9,288" style="fill:none;stroke:#000000;stroke-width:1" />
<polyline points="523.3499999999999,282 523.3499999999999,288" style="fill:none;stroke:#000000;stroke-width:1" />
<text text-anchor="middle" x="76.65" y="303" font-weight="bold" font-family="'Segoe UI', 'Helvetica Neue', Arial, sans-serif" font-size="14">1990</text>
<text text-anchor="middle" x="151.1" y="303" font-weight="bold" font-family="'Segoe UI', 'Helvetica Neue', Arial, sans-serif" font-size="14">1995</text>
<text text-anchor="middle" x="225.54999999999998" y="303" font-weight="bold" font-family="'Segoe UI', 'Helvetica Neue', Arial, sans-serif" font-size="14">2000</text>
<text text-anchor="middle" x="300.0" y="303" font-weight="bold" font-family="'Segoe UI', 'Helvetica Neue', Arial, sans-serif" font-size="14">2005</text>
<text text-anchor="middle" x="374.44999999999993" y="303" font-weight="bold" font-family="'Segoe UI', 'Helvetica Neue', Arial, sans-serif" font-size="14">2010</text>
<text text-anchor="middle" x="448.9" y="303" font-weight="bold" font-family="'Segoe UI', 'Helvetica Neue', Arial, sans-serif" font-size="14">2015</text>
<text text-anchor="middle" x="523.3499999999999" y="303" font-weight="bold" font-family="'Segoe UI', 'Helvetica Neue', Arial, sans-serif" font-size="14">2020</text>
<polyline points="76.65,128.65 91.54,132.3639240506329" style="fill:none;stroke:#ba0f27;stroke-width:2"  />
<polyline points="91.54,132.3639240506329 106.43,137.93481012658228" style="fill:none;stroke:#ba0f27;stroke-width:2"  />
<polyline points="106.43,137.93481012658228 121.32,147.21962025316455" style="fill:none;stroke:#ba0f27;stroke-width:2"  />
<polyline points="121.32,147.21962025316455 136.21,150.93354430379748" style="fill:none;stroke:#ba0f27;stroke-width:2"  />
<polyline points="136.21,150.93354430379748 151.1,156.50443037974685" style="fill:none;stroke:#ba0f27;stroke-width:2"  />
<polyline points="151.1,156.50443037974685 165.99,156.50443037974685" style="fill:none;stroke:#ba0f27;stroke-width:2"  />
<polyline points="165.99,156.50443037974685 180.88,163.93227848101264" style="fill:none;stroke:#ba0f27;stroke-width:2"  />
<polyline points="180.88,163.93227848101264 195.76999999999998,169.50316455696202" style="fill:none;stroke:#ba0f27;stroke-width:2"  />
<polyline points="195.76999999999998,169.50316455696202 210.66,171.3601265822785" style="fill:none;stroke:#ba0f27;stroke-width:2"  />
<polyline points="210.66,171.3601265822785 225.54999999999998,173.21708860759495" style="fill:none;stroke:#ba0f27;stroke-width:2"  />
<polyline points="225.54999999999998,173.21708860759495 240.44,180.64493670886077" style="fill:none;stroke:#ba0f27;stroke-width:2"  />
<polyline points="240.44,180.64493670886077 255.32999999999998,182.50189873417722" style="fill:none;stroke:#ba0f27;stroke-width:2"  />
<polyline points="255.32999999999998,182.50189873417722 270.22,188.0727848101266" style="fill:none;stroke:#ba0f27;stroke-width:2"  />
<polyline points="270.22,188.0727848101266 285.11,193.64367088607594" style="fill:none;stroke:#ba0f27;stroke-width:2"  />
<polyline points="285.11,193.64367088607594 300.0,193.64367088607594" style="fill:none;stroke:#ba0f27;stroke-width:2"  />
<polyline points="300.0,193.64367088607594 314.89,193.64367088607594" style="fill:none;stroke:#ba0f27;stroke-width:2"  />
<polyline points="314.89,193.64367088607594 329.78,197.35759493670886" style="fill:none;stroke:#ba0f27;stroke-width:2"  />
<polyline points="329.78,197.35759493670886 344.66999999999996,201.0715189873418" style="fill:none;stroke:#ba0f27;stroke-width:2"  />
<polyline points="344.66999999999996,201.0715189873418 359.55999999999995,201.0715189873418" style="fill:none;stroke:#ba0f27;stroke-width:2"  />
<polyline points="359.55999999999995,201.0715189873418 374.44999999999993,208.49936708860758" style="fill:none;stroke:#ba0f27;stroke-width:2"  />
<polyline points="374.44999999999993,208.49936708860758 389.34000000000003,215.92721518987344" style="fill:none;stroke:#ba0f27;stroke-width:2"  />
<polyline points="389.34000000000003,215.92721518987344 404.23,223.35506329113923" style="fill:none;stroke:#ba0f27;stroke-width:2"  />
<polyline points="404.23,223.35506329113923 419.12,232.6398734177215" style="fill:none;stroke:#ba0f27;stroke-width:2"  />
<polyline points="419.12,232.6398734177215 434.01,243.78164556962025" style="fill:none;stroke:#ba0f27;stroke-width:2"  />
<polyline points="434.01,243.78164556962025 448.9,249.35253164556963" style="fill:none;stroke:#ba0f27;stroke-width:2"  />
<polyline points="448.9,249.35253164556963 463.78999999999996,253.06645569620252" style="fill:none;stroke:#ba0f27;stroke-width:2"  />
<polyline points="463.78999999999996,253.06645569620252 478.67999999999995,260.4943037974683" style="fill:none;stroke:#ba0f27;stroke-width:2"  />
<polyline points="478.67999999999995,260.4943037974683 493.56999999999994,267.92215189873417" style="fill:none;stroke:#ba0f27;stroke-width:2"  />
<polyline points="493.56999999999994,267.92215189873417 508.4599999999999,275.35" style="fill:none;stroke:#ba0f27;stroke-width:2"  />
<polyline points="508.4599999999999,275.35 523.35,275.35" style="fill:none;stroke:#ba0f27;stroke-width:2"  />
<circle cx="76.65" cy="128.65" r="1.65" stroke="#F7F7F7" stroke-width="1.65" fill="#F7F7F7" />
<circle cx="76.65" cy="128.65" r="1.65" stroke="#ba0f27" stroke-width="1.65" fill="#ba0f27"  />
<circle cx="91.54" cy="132.3639240506329" r="1.65" stroke="#F7F7F7" stroke-width="1.65" fill="#F7F7F7" />
<circle cx="91.54" cy="132.3639240506329" r="1.65" stroke="#ba0f27" stroke-width="1.65" fill="#ba0f27"  />
<circle cx="106.43" cy="137.93481012658228" r="1.65" stroke="#F7F7F7" stroke-width="1.65" fill="#F7F7F7" />
<circle cx="106.43" cy="137.93481012658228" r="1.65" stroke="#ba0f27" stroke-width="1.65" fill="#ba0f27"  />
<circle cx="121.32" cy="147.21962025316455" r="1.65" stroke="#F7F7F7" stroke-width="1.65" fill="#F7F7F7" />
<circle cx="121.32" cy="147.21962025316455" r="1.65" stroke="#ba0f27" stroke-width="1.65" fill="#ba0f27"  />
<circle cx="136.21" cy="150.93354430379748" r="1.65" stroke="#F7F7F7" stroke-width="1.65" fill="#F7F7F7" />
<circle cx="136.21" cy="150.93354430379748" r="1.65" stroke="#ba0f27" stroke-width="1.65" fill="#ba0f27"  />
<circle cx="151.1" cy="156.50443037974685" r="1.65" stroke="#F7F7F7" stroke-width="1.65" fill="#F7F7F7" />
<circle cx="151.1" cy="156.50443037974685" r="1.65" stroke="#ba0f27" stroke-width="1.65" fill="#ba0f27"  />
<circle cx="165.99" cy="156.50443037974685" r="1.65" stroke="#F7F7F7" stroke-width="1.65" fill="#F7F7F7" />
<circle cx="165.99" cy="156.50443037974685" r="1.65" stroke="#ba0f27" stroke-width="1.65" fill="#ba0f27"  />
<circle cx="180.88" cy="163.93227848101264" r="1.65" stroke="#F7F7F7" stroke-width="1.65" fill="#F7F7F7" />
<circle cx="180.88" cy="163.93227848101264" r="1.65" stroke="#ba0f27" stroke-width="1.65" fill="#ba0f27"  />
<circle cx="195.76999999999998" cy="169.50316455696202" r="1.65" stroke="#F7F7F7" stroke-width="1.65" fill="#F7F7F7" />
<circle cx="195.76999999999998" cy="169.50316455696202" r="1.65" stroke="#ba0f27" stroke-width="1.65" fill="#ba0f27"  />
<circle cx="210.66" cy="171.3601265822785" r="1.65" stroke="#F7F7F7" stroke-width="1.65" fill="#F7F7F7" />
<circle cx="210.66" cy="171.3601265822785" r="1.65" stroke="#ba0f27" stroke-width="1.65" fill="#ba0f27"  />
<circle cx="225.54999999999998" cy="173.21708860759495" r="1.65" stroke="#F7F7F7" stroke-width="1.65" fill="#F7F7F7" />
<circle cx="225.54999999999998" cy="173.21708860759495" r="1.65" stroke="#ba0f27" stroke-width="1.65" fill="#ba0f27"  />
<circle cx="240.44" cy="180.64493670886077" r="1.65" stroke="#F7F7F7" stroke-width="1.65" fill="#F7F7F7" />
<circle cx="240.44" cy="180.64493670886077" r="1.65" stroke="#ba0f27" stroke-width="1.65" fill="#ba0f27"  />
<circle cx="255.32999999999998" cy="182.50189873417722" r="1.65" stroke="#F7F7F7" stroke-width="1.65" fill="#F7F7F7" />
<circle cx="255.32999999999998" cy="182.50189873417722" r="1.65" stroke="#ba0f27" stroke-width="1.65" fill="#ba0f27"  />
<circle cx="270.22" cy="188.0727848101266" r="1.65" stroke="#F7F7F7" stroke-width="1.65" fill="#F7F7F7" />
<circle cx="270.22" cy="188.0727848101266" r="1.65" stroke="#ba0f27" stroke-width="1.65" fill="#ba0f27"  />
<circle cx="285.11" cy="193.64367088607594" r="1.65" stroke="#F7F7F7" stroke-width="1.65" fill="#F7F7F7" />
<circle cx="285.11" cy="193.64367088607594" r="1.65" stroke="#ba0f27" stroke-width="1.65" fill="#ba0f27"  />
<circle cx="300.0" cy="193.64367088607594" r="1.65" stroke="#F7F7F7" stroke-width="1.65" fill="#F7F7F7" />
<circle cx="300.0" cy="193.64367088607594" r="1.65" stroke="#ba0f27" stroke-width="1.65" fill="#ba0f27"  />
<circle cx="314.89" cy="193.64367088607594" r="1.65" stroke="#F7F7F7" stroke-width="1.65" fill="#F7F7F7" />
<circle cx="314.89" cy="193.64367088607594" r="1.65" stroke="#ba0f27" stroke-width="1.65" fill="#ba0f27"  />
<circle cx="329.78" cy="197.35759493670886" r="1.65" stroke="#F7F7F7" stroke-width="1.65" fill="#F7F7F7" />
<circle cx="329.78" cy="197.35759493670886" r="1.65" stroke="#ba0f27" stroke-width="1.65" fill="#ba0f27"  />
<circle cx="344.66999999999996" cy="201.0715189873418" r="1.65" stroke="#F7F7F7" stroke-width="1.65" fill="#F7F7F7" />
<circle cx="344.66999999999996" cy="201.0715189873418" r="1.65" stroke="#ba0f27" stroke-width="1.65" fill="#ba0f27"  />
<circle cx="359.55999999999995" cy="201.0715189873418" r="1.65" stroke="#F7F7F7" stroke-width="1.65" fill="#F7F7F7" />
<circle cx="359.55999999999995" cy="201.0715189873418" r="1.65" stroke="#ba0f27" stroke-width="1.65" fill="#ba0f27"  />
<circle cx="374.44999999999993" cy="208.49936708860758" r="1.65" stroke="#F7F7F7" stroke-width="1.65" fill="#F7F7F7" />
<circle cx="374.44999999999993" cy="208.49936708860758" r="1.65" stroke="#ba0f27" stroke-width="1.65" fill="#ba0f27"  />
<circle cx="389.34000000000003" cy="215.92721518987344" r="1.65" stroke="#F7F7F7" stroke-width="1.65" fill="#F7F7F7" />
<circle cx="389.34000000000003" cy="215.92721518987344" r="1.65" stroke="#ba0f27" stroke-width="1.65" fill="#ba0f27"  />
<circle cx="404.23" cy="223.35506329113923" r="1.65" stroke="#F7F7F7" stroke-width="1.65" fill="#F7F7F7" />
<circle cx="404.23" cy="223.35506329113923" r="1.65" stroke="#ba0f27" stroke-width="1.65" fill="#ba0f27"  />
<circle cx="419.12" cy="232.6398734177215" r="1.65" stroke="#F7F7F7" stroke-width="1.65" fill="#F7F7F7" />
<circle cx="419.12" cy="232.6398734177215" r="1.65" stroke="#ba0f27" stroke-width="1.65" fill="#ba0f27"  />
<circle cx="434.01" cy="243.78164556962025" r="1.65" stroke="#F7F7F7" stroke-width="1.65" fill="#F7F7F7" />
<circle cx="434.01" cy="243.78164556962025" r="1.65" stroke="#ba0f27" stroke-width="1.65" fill="#ba0f27"  />
<circle cx="448.9" cy="249.35253164556963" r="1.65" stroke="#F7F7F7" stroke-width="1.65" fill="#F7F7F7" />
<circle cx="448.9" cy="249.35253164556963" r="1.65" stroke="#ba0f27" stroke-width="1.65" fill="#ba0f27"  />
<circle cx="463.78999999999996" cy="253.06645569620252" r="1.65" stroke="#F7F7F7" stroke-width="1.65" fill="#F7F7F7" />
<circle cx="463.78999999999996" cy="253.06645569620252" r="1.65" stroke="#ba0f27" stroke-width="1.65" fill="#ba0f27"  />
<circle cx="478.67999999999995" cy="260.4943037974683" r="1.65" stroke="#F7F7F7" stroke-width="1.65" fill="#F7F7F7" />
<circle cx="478.67999999999995" cy="260.4943037974683" r="1.65" stroke="#ba0f27" stroke-width="1.65" fill="#ba0f27"  />
<circle cx="493.56999999999994" cy="267.92215189873417" r="1.65" stroke="#F7F7F7" stroke-width="1.65" fill="#F7F7F7" />
<circle cx="493.56999999999994" cy="267.92215189873417" r="1.65" stroke="#ba0f27" stroke-width="1.65" fill="#ba0f27"  />
<circle cx="508.4599999999999" cy="275.35" r="1.65" stroke="#F7F7F7" stroke-width="1.65" fill="#F7F7F7" />
<circle cx="508.4599999999999" cy="275.35" r="1.65" stroke="#ba0f27" stroke-width="1.65" fill="#ba0f27"  />
<circle cx="523.35" cy="275.35" r="1.65" stroke="#F7F7F7" stroke-width="1.65" fill="#F7F7F7" />
<circle cx="523.35" cy="275.35" r="1.65" stroke="#ba0f27" stroke-width="1.65" fill="#ba0f27"  />
<polyline points="76.65,128.65 91.54,128.65947949985463" style="fill:none;stroke:#000000;stroke-width:2" stroke-dasharray="3,1"  />
<polyline points="91.54,128.65947949985463 106.43,134.612605408549" style="fill:none;stroke:#000000;stroke-width:2" stroke-dasharray="3,1"  />
<polyline points="106.43,134.612605408549 121.32,134.54150915963945" style="fill:none;stroke:#000000;stroke-width:2" stroke-dasharray="3,1"  />
<polyline points="121.32,134.54150915963945 136.21,134.92542890375108" style="fill:none;stroke:#000000;stroke-width:2" stroke-dasharray="3,1"  />
<polyline points="136.21,134.92542890375108 151.1,140.81219831346323" style="fill:none;stroke:#000000;stroke-width:2" stroke-dasharray="3,1"  />
<polyline points="151.1,140.81219831346323 165.99,136.23596975865078" style="fill:none;stroke:#000000;stroke-width:2" stroke-dasharray="3,1"  />
<polyline points="165.99,136.23596975865078 180.88,135.21929339924398" style="fill:none;stroke:#000000;stroke-width:2" stroke-dasharray="3,1"  />
<polyline points="180.88,135.21929339924398 195.76999999999998,141.30276243093923" style="fill:none;stroke:#000000;stroke-width:2" stroke-dasharray="3,1"  />
<polyline points="195.76999999999998,141.30276243093923 210.66,146.1657458563536" style="fill:none;stroke:#000000;stroke-width:2" stroke-dasharray="3,1"  />
<polyline points="210.66,146.1657458563536 225.54999999999998,146.81746147135794" style="fill:none;stroke:#000000;stroke-width:2" stroke-dasharray="3,1"  />
<polyline points="225.54999999999998,146.81746147135794 240.44,153.2042744984007" style="fill:none;stroke:#000000;stroke-width:2" stroke-dasharray="3,1"  />
<polyline points="240.44,153.2042744984007 255.32999999999998,154.00055248618784" style="fill:none;stroke:#000000;stroke-width:2" stroke-dasharray="3,1"  />
<polyline points="255.32999999999998,154.00055248618784 270.22,155.6594649607444" style="fill:none;stroke:#000000;stroke-width:2" stroke-dasharray="3,1"  />
<polyline points="270.22,155.6594649607444 285.11,170.3716487350974" style="fill:none;stroke:#000000;stroke-width:2" stroke-dasharray="3,1"  />
<polyline points="285.11,170.3716487350974 300.0,177.08787438208782" style="fill:none;stroke:#000000;stroke-width:2" stroke-dasharray="3,1"  />
<polyline points="300.0,177.08787438208782 314.89,186.9299651061355" style="fill:none;stroke:#000000;stroke-width:2" stroke-dasharray="3,1"  />
<polyline points="314.89,186.9299651061355 329.78,195.60370747310265" style="fill:none;stroke:#000000;stroke-width:2" stroke-dasharray="3,1"  />
<polyline points="329.78,195.60370747310265 344.66999999999996,196.60379470776388" style="fill:none;stroke:#000000;stroke-width:2" stroke-dasharray="3,1"  />
<polyline points="344.66999999999996,196.60379470776388 359.55999999999995,198.61107880197733" style="fill:none;stroke:#000000;stroke-width:2" stroke-dasharray="3,1"  />
<polyline points="359.55999999999995,198.61107880197733 374.44999999999993,209.2968450130852" style="fill:none;stroke:#000000;stroke-width:2" stroke-dasharray="3,1"  />
<polyline points="374.44999999999993,209.2968450130852 389.34000000000003,213.1952893282931" style="fill:none;stroke:#000000;stroke-width:2" stroke-dasharray="3,1"  />
<polyline points="389.34000000000003,213.1952893282931 404.23,221.25760395463797" style="fill:none;stroke:#000000;stroke-width:2" stroke-dasharray="3,1"  />
<polyline points="404.23,221.25760395463797 419.12,224.85507414946204" style="fill:none;stroke:#000000;stroke-width:2" stroke-dasharray="3,1"  />
<polyline points="419.12,224.85507414946204 434.01,228.7511485897063" style="fill:none;stroke:#000000;stroke-width:2" stroke-dasharray="3,1"  />
<polyline points="434.01,228.7511485897063 448.9,234.5786711253271" style="fill:none;stroke:#000000;stroke-width:2" stroke-dasharray="3,1"  />
<polyline points="448.9,234.5786711253271 463.78999999999996,245.22651933701655" style="fill:none;stroke:#000000;stroke-width:2" stroke-dasharray="3,1"  />
<polyline points="463.78999999999996,245.22651933701655 478.67999999999995,249.0349084036057" style="fill:none;stroke:#000000;stroke-width:2" stroke-dasharray="3,1"  />
<polyline points="478.67999999999995,249.0349084036057 493.56999999999994,258.1186391392847" style="fill:none;stroke:#000000;stroke-width:2" stroke-dasharray="3,1"  />
<polyline points="493.56999999999994,258.1186391392847 508.4599999999999,267.3801104972375" style="fill:none;stroke:#000000;stroke-width:2" stroke-dasharray="3,1"  />
<polyline points="508.4599999999999,267.3801104972375 523.35,275.35" style="fill:none;stroke:#000000;stroke-width:2" stroke-dasharray="3,1"  />
<polygon points="74.67,128.65 76.65,126.67 78.63000000000001,128.65 76.65,130.63" stroke="#F7F7F7" stroke-width="1.65" fill="#F7F7F7"  />
<polygon points="74.67,128.65 76.65,126.67 78.63000000000001,128.65 76.65,130.63" stroke="#000000" stroke-width="1.65" fill="#000000"  />
<polygon points="89.56,128.65947949985463 91.54,126.67947949985462 93.52000000000001,128.65947949985463 91.54,130.63947949985462" stroke="#F7F7F7" stroke-width="1.65" fill="#F7F7F7"  />
<polygon points="89.56,128.65947949985463 91.54,126.67947949985462 93.52000000000001,128.65947949985463 91.54,130.63947949985462" stroke="#000000" stroke-width="1.65" fill="#000000"  />
<polygon points="104.45,134.612605408549 106.43,132.632605408549 108.41000000000001,134.612605408549 106.43,136.592605408549" stroke="#F7F7F7" stroke-width="1.65" fill="#F7F7F7"  />
<polygon points="104.45,134.612605408549 106.43,132.632605408549 108.41000000000001,134.612605408549 106.43,136.592605408549" stroke="#000000" stroke-width="1.65" fill="#000000"  />
<polygon points="119.33999999999999,134.54150915963945 121.32,132.56150915963946 123.3,134.54150915963945 121.32,136.52150915963944" stroke="#F7F7F7" stroke-width="1.65" fill="#F7F7F7"  />
<polygon points="119.33999999999999,134.54150915963945 121.32,132.56150915963946 123.3,134.54150915963945 121.32,136.52150915963944" stroke="#000000" stroke-width="1.65" fill="#000000"  />
<polygon points="134.23000000000002,134.92542890375108 136.21,132.9454289037511 138.19,134.92542890375108 136.21,136.90542890375107" stroke="#F7F7F7" stroke-width="1.65" fill="#F7F7F7"  />
<polygon points="134.23000000000002,134.92542890375108 136.21,132.9454289037511 138.19,134.92542890375108 136.21,136.90542890375107" stroke="#000000" stroke-width="1.65" fill="#000000"  />
<polygon points="149.12,140.81219831346323 151.1,138.83219831346324 153.07999999999998,140.81219831346323 151.1,142.79219831346322" stroke="#F7F7F7" stroke-width="1.65" fill="#F7F7F7"  />
<polygon points="149.12,140.81219831346323 151.1,138.83219831346324 153.07999999999998,140.81219831346323 151.1,142.79219831346322" stroke="#000000" stroke-width="1.65" fill="#000000"  />
<polygon points="164.01000000000002,136.23596975865078 165.99,134.2559697586508 167.97,136.23596975865078 165.99,138.21596975865077" stroke="#F7F7F7" stroke-width="1.65" fill="#F7F7F7"  />
<polygon points="164.01000000000002,136.23596975865078 165.99,134.2559697586508 167.97,136.23596975865078 165.99,138.21596975865077" stroke="#000000" stroke-width="1.65" fill="#000000"  />
<polygon points="178.9,135.21929339924398 180.88,133.239293399244 182.85999999999999,135.21929339924398 180.88,137.19929339924397" stroke="#F7F7F7" stroke-width="1.65" fill="#F7F7F7"  />
<polygon points="178.9,135.21929339924398 180.88,133.239293399244 182.85999999999999,135.21929339924398 180.88,137.19929339924397" stroke="#000000" stroke-width="1.65" fill="#000000"  />
<polygon points="193.79,141.30276243093923 195.76999999999998,139.32276243093924 197.74999999999997,141.30276243093923 195.76999999999998,143.28276243093921" stroke="#F7F7F7" stroke-width="1.65" fill="#F7F7F7"  />
<polygon points="193.79,141.30276243093923 195.76999999999998,139.32276243093924 197.74999999999997,141.30276243093923 195.76999999999998,143.28276243093921" stroke="#000000" stroke-width="1.65" fill="#000000"  />
<polygon points="208.68,146.1657458563536 210.66,144.1857458563536 212.64,146.1657458563536 210.66,148.14574585635359" stroke="#F7F7F7" stroke-width="1.65" fill="#F7F7F7"  />
<polygon points="208.68,146.1657458563536 210.66,144.1857458563536 212.64,146.1657458563536 210.66,148.14574585635359" stroke="#000000" stroke-width="1.65" fill="#000000"  />
<polygon points="223.57,146.81746147135794 225.54999999999998,144.83746147135795 227.52999999999997,146.81746147135794 225.54999999999998,148.79746147135793" stroke="#F7F7F7" stroke-width="1.65" fill="#F7F7F7"  />
<polygon points="223.57,146.81746147135794 225.54999999999998,144.83746147135795 227.52999999999997,146.81746147135794 225.54999999999998,148.79746147135793" stroke="#000000" stroke-width="1.65" fill="#000000"  />
<polygon points="238.46,153.2042744984007 240.44,151.22427449840072 242.42,153.2042744984007 240.44,155.1842744984007" stroke="#F7F7F7" stroke-width="1.65" fill="#F7F7F7"  />
<polygon points="238.46,153.2042744984007 240.44,151.22427449840072 242.42,153.2042744984007 240.44,155.1842744984007" stroke="#000000" stroke-width="1.65" fill="#000000"  />
<polygon points="253.35,154.00055248618784 255.32999999999998,152.02055248618785 257.31,154.00055248618784 255.32999999999998,155.98055248618783" stroke="#F7F7F7" stroke-width="1.65" fill="#F7F7F7"  />
<polygon points="253.35,154.00055248618784 255.32999999999998,152.02055248618785 257.31,154.00055248618784 255.32999999999998,155.98055248618783" stroke="#000000" stroke-width="1.65" fill="#000000"  />
<polygon points="268.24,155.6594649607444 270.22,153.6794649607444 272.20000000000005,155.6594649607444 270.22,157.6394649607444" stroke="#F7F7F7" stroke-width="1.65" fill="#F7F7F7"  />
<polygon points="268.24,155.6594649607444 270.22,153.6794649607444 272.20000000000005,155.6594649607444 270.22,157.6394649607444" stroke="#000000" stroke-width="1.65" fill="#000000"  />
<polygon points="283.13,170.3716487350974 285.11,168.39164873509742 287.09000000000003,170.3716487350974 285.11,172.3516487350974" stroke="#F7F7F7" stroke-width="1.65" fill="#F7F7F7"  />
<polygon points="283.13,170.3716487350974 285.11,168.39164873509742 287.09000000000003,170.3716487350974 285.11,172.3516487350974" stroke="#000000" stroke-width="1.65" fill="#000000"  />
<polygon points="298.02,177.08787438208782 300.0,175.10787438208783 301.98,177.08787438208782 300.0,179.0678743820878" stroke="#F7F7F7" stroke-width="1.65" fill="#F7F7F7"  />
<polygon points="298.02,177.08787438208782 300.0,175.10787438208783 301.98,177.08787438208782 300.0,179.0678743820878" stroke="#000000" stroke-width="1.65" fill="#000000"  />
<polygon points="312.90999999999997,186.9299651061355 314.89,184.94996510613552 316.87,186.9299651061355 314.89,188.9099651061355" stroke="#F7F7F7" stroke-width="1.65" fill="#F7F7F7"  />
<polygon points="312.90999999999997,186.9299651061355 314.89,184.94996510613552 316.87,186.9299651061355 314.89,188.9099651061355" stroke="#000000" stroke-width="1.65" fill="#000000"  />
<polygon points="327.79999999999995,195.60370747310265 329.78,193.62370747310266 331.76,195.60370747310265 329.78,197.58370747310263" stroke="#F7F7F7" stroke-width="1.65" fill="#F7F7F7"  />
<polygon points="327.79999999999995,195.60370747310265 329.78,193.62370747310266 331.76,195.60370747310265 329.78,197.58370747310263" stroke="#000000" stroke-width="1.65" fill="#000000"  />
<polygon points="342.68999999999994,196.60379470776388 344.66999999999996,194.6237947077639 346.65,196.60379470776388 344.66999999999996,198.58379470776387" stroke="#F7F7F7" stroke-width="1.65" fill="#F7F7F7"  />
<polygon points="342.68999999999994,196.60379470776388 344.66999999999996,194.6237947077639 346.65,196.60379470776388 344.66999999999996,198.58379470776387" stroke="#000000" stroke-width="1.65" fill="#000000"  />
<polygon points="357.5799999999999,198.61107880197733 359.55999999999995,196.63107880197734 361.53999999999996,198.61107880197733 359.55999999999995,200.59107880197732" stroke="#F7F7F7" stroke-width="1.65" fill="#F7F7F7"  />
<polygon points="357.5799999999999,198.61107880197733 359.55999999999995,196.63107880197734 361.53999999999996,198.61107880197733 359.55999999999995,200.59107880197732" stroke="#000000" stroke-width="1.65" fill="#000000"  />
<polygon points="372.4699999999999,209.2968450130852 374.44999999999993,207.3168450130852 376.42999999999995,209.2968450130852 374.44999999999993,211.2768450130852" stroke="#F7F7F7" stroke-width="1.65" fill="#F7F7F7"  />
<polygon points="372.4699999999999,209.2968450130852 374.44999999999993,207.3168450130852 376.42999999999995,209.2968450130852 374.44999999999993,211.2768450130852" stroke="#000000" stroke-width="1.65" fill="#000000"  />
<polygon points="387.36,213.1952893282931 389.34000000000003,211.2152893282931 391.32000000000005,213.1952893282931 389.34000000000003,215.17528932829308" stroke="#F7F7F7" stroke-width="1.65" fill="#F7F7F7"  />
<polygon points="387.36,213.1952893282931 389.34000000000003,211.2152893282931 391.32000000000005,213.1952893282931 389.34000000000003,215.17528932829308" stroke="#000000" stroke-width="1.65" fill="#000000"  />
<polygon points="402.25,221.25760395463797 404.23,219.27760395463798 406.21000000000004,221.25760395463797 404.23,223.23760395463796" stroke="#F7F7F7" stroke-width="1.65" fill="#F7F7F7"  />
<polygon points="402.25,221.25760395463797 404.23,219.27760395463798 406.21000000000004,221.25760395463797 404.23,223.23760395463796" stroke="#000000" stroke-width="1.65" fill="#000000"  />
<polygon points="417.14,224.85507414946204 419.12,222.87507414946205 421.1,224.85507414946204 419.12,226.83507414946203" stroke="#F7F7F7" stroke-width="1.65" fill="#F7F7F7"  />
<polygon points="417.14,224.85507414946204 419.12,222.87507414946205 421.1,224.85507414946204 419.12,226.83507414946203" stroke="#000000" stroke-width="1.65" fill="#000000"  />
<polygon points="432.03,228.7511485897063 434.01,226.7711485897063 435.99,228.7511485897063 434.01,230.7311485897063" stroke="#F7F7F7" stroke-width="1.65" fill="#F7F7F7"  />
<polygon points="432.03,228.7511485897063 434.01,226.7711485897063 435.99,228.7511485897063 434.01,230.7311485897063" stroke="#000000" stroke-width="1.65" fill="#000000"  />
<polygon points="446.91999999999996,234.5786711253271 448.9,232.59867112532712 450.88,234.5786711253271 448.9,236.5586711253271" stroke="#F7F7F7" stroke-width="1.65" fill="#F7F7F7"  />
<polygon points="446.91999999999996,234.5786711253271 448.9,232.59867112532712 450.88,234.5786711253271 448.9,236.5586711253271" stroke="#000000" stroke-width="1.65" fill="#000000"  />
<polygon points="461.80999999999995,245.22651933701655 463.78999999999996,243.24651933701657 465.77,245.22651933701655 463.78999999999996,247.20651933701654" stroke="#F7F7F7" stroke-width="1.65" fill="#F7F7F7"  />
<polygon points="461.80999999999995,245.22651933701655 463.78999999999996,243.24651933701657 465.77,245.22651933701655 463.78999999999996,247.20651933701654" stroke="#000000" stroke-width="1.65" fill="#000000"  />
<polygon points="476.69999999999993,249.0349084036057 478.67999999999995,247.0549084036057 480.65999999999997,249.0349084036057 478.67999999999995,251.0149084036057" stroke="#F7F7F7" stroke-width="1.65" fill="#F7F7F7"  />
<polygon points="476.69999999999993,249.0349084036057 478.67999999999995,247.0549084036057 480.65999999999997,249.0349084036057 478.67999999999995,251.0149084036057" stroke="#000000" stroke-width="1.65" fill="#000000"  />
<polygon points="491.5899999999999,258.1186391392847 493.56999999999994,256.1386391392847 495.54999999999995,258.1186391392847 493.56999999999994,260.0986391392847" stroke="#F7F7F7" stroke-width="1.65" fill="#F7F7F7"  />
<polygon points="491.5899999999999,258.1186391392847 493.56999999999994,256.1386391392847 495.54999999999995,258.1186391392847 493.56999999999994,260.0986391392847" stroke="#000000" stroke-width="1.65" fill="#000000"  />
<polygon points="506.4799999999999,267.3801104972375 508.4599999999999,265.4001104972375 510.43999999999994,267.3801104972375 508.4599999999999,269.36011049723754" stroke="#F7F7F7" stroke-width="1.65" fill="#F7F7F7"  />
<polygon points="506.4799999999999,267.3801104972375 508.4599999999999,265.4001104972375 510.43999999999994,267.3801104972375 508.4599999999999,269.36011049723754" stroke="#000000" stroke-width="1.65" fill="#000000"  />
<polygon points="521.37,275.35 523.35,273.37 525.33,275.35 523.35,277.33000000000004" stroke="#F7F7F7" stroke-width="1.65" fill="#F7F7F7"  />
<polygon points="521.37,275.35 523.35,273.37 525.33,275.35 523.35,277.33000000000004" stroke="#000000" stroke-width="1.65" fill="#000000"  />
</svg>